<svg xmlns="http://www.w3.org/2000/svg" width="143" height="30" viewBox="0 0 143 30">
  <g id="header-logo_1_" data-name="header-logo (1)" transform="translate(-208.914 -298.754)">
    <path id="パス_3" data-name="パス 3" d="M222.614,346.981a.508.508,0,0,1-.532-.355l-4.614-9.4h-4.152a.189.189,0,0,0-.213.213v9.192a.335.335,0,0,1-.355.355h-3.478a.336.336,0,0,1-.355-.355V323.2a.335.335,0,0,1,.355-.355H218.6c4.437,0,7.7,2.946,7.7,7.2a6.865,6.865,0,0,1-4.578,6.637l5.078,9.831a.285.285,0,0,1-.248.461Zm-.461-16.929a3.368,3.368,0,0,0-3.691-3.443h-5.146a.189.189,0,0,0-.213.213v6.424a.189.189,0,0,0,.213.213h5.146a3.36,3.36,0,0,0,3.694-3.406Z" transform="translate(0 -18.623)" fill="#131d34"/>
    <path id="パス_4" data-name="パス 4" d="M307.226,368.993a.335.335,0,0,1-.355-.355V367.4h-.036c-.816,1.171-2.413,1.988-4.827,1.988-3.123,0-5.749-1.632-5.749-5.217,0-3.726,2.626-5.43,6.849-5.43h3.481a.188.188,0,0,0,.213-.213v-.817c0-1.952-.923-2.839-3.8-2.839a6,6,0,0,0-3.9,1.172.318.318,0,0,1-.5-.073l-1.313-2.342a.331.331,0,0,1,.073-.461,9.983,9.983,0,0,1,6.069-1.668c5.217,0,7.134,1.774,7.134,5.963v11.179a.335.335,0,0,1-.355.355Zm-.426-5.75V361.93a.189.189,0,0,0-.213-.213h-2.839c-2.556,0-3.691.709-3.691,2.307,0,1.42,1.029,2.13,2.946,2.13,2.449,0,3.8-.96,3.8-2.908Z" transform="translate(-67.112 -40.635)" fill="#131d34"/>
    <path id="パス_5" data-name="パス 5" d="M1.111,0H2.864A1.111,1.111,0,0,1,3.975,1.111V16a1.111,1.111,0,0,1-1.111,1.111H1.112A1.112,1.112,0,0,1,0,15.994V1.111A1.111,1.111,0,0,1,1.111,0Z" transform="translate(247.47 311.251)" fill="#131d34"/>
    <path id="パス_6" data-name="パス 6" d="M406.844,366.69a.343.343,0,0,1,0-.5l2.023-2.13a.343.343,0,0,1,.5,0,7.918,7.918,0,0,0,5.005,1.952c2.094,0,3.158-.852,3.158-2.023,0-1.029-.6-1.668-2.839-1.881l-1.845-.178c-3.478-.355-5.253-2.129-5.253-5.039,0-3.3,2.378-5.395,6.637-5.395a10.373,10.373,0,0,1,6.423,2.094.351.351,0,0,1,.073.5l-1.741,2.094a.347.347,0,0,1-.5.073,8.258,8.258,0,0,0-4.471-1.42c-1.7,0-2.591.745-2.591,1.774,0,.994.6,1.6,2.8,1.81l1.845.178c3.584.355,5.288,2.2,5.288,5.005,0,3.409-2.484,5.785-7.169,5.785A10.607,10.607,0,0,1,406.844,366.69Z" transform="translate(-152.17 -40.639)" fill="#131d34"/>
    <path id="パス_7" data-name="パス 7" d="M480.734,364.629a13.267,13.267,0,0,1-.6-4.188,13.636,13.636,0,0,1,.568-4.224c.958-2.981,3.585-4.72,6.991-4.72,3.514,0,6.069,1.813,7.027,4.72a15.327,15.327,0,0,1,.568,5.146.346.346,0,0,1-.39.355H484.354a.188.188,0,0,0-.213.213,3.977,3.977,0,0,0,4.081,3.9,5.157,5.157,0,0,0,4.011-1.632.363.363,0,0,1,.532-.073l2.094,1.845a.318.318,0,0,1,.036.5,9.015,9.015,0,0,1-7.027,2.91C484.247,369.387,481.692,367.612,480.734,364.629Zm10.327-7.557a3.656,3.656,0,0,0-6.708,0,4.342,4.342,0,0,0-.213,1.455.188.188,0,0,0,.213.213h6.708a.188.188,0,0,0,.213-.213,4.342,4.342,0,0,0-.213-1.455Z" transform="translate(-208.628 -40.639)" fill="#131d34"/>
    <path id="パス_8" data-name="パス 8" d="M552.108,346.981a.335.335,0,0,1-.355-.355v-19.8a.189.189,0,0,0-.213-.213h-6.317a.335.335,0,0,1-.355-.355V323.2a.336.336,0,0,1,.355-.355h17.248a.335.335,0,0,1,.355.355v3.052a.335.335,0,0,1-.355.355h-6.318a.189.189,0,0,0-.213.213v19.8a.336.336,0,0,1-.355.355Z" transform="translate(-258.433 -18.623)" fill="#131d34"/>
    <path id="パス_9" data-name="パス 9" d="M617.652,364.629a13.264,13.264,0,0,1-.6-4.188,13.634,13.634,0,0,1,.568-4.224c.958-2.981,3.584-4.72,6.991-4.72,3.514,0,6.069,1.813,7.027,4.72a15.327,15.327,0,0,1,.568,5.146.346.346,0,0,1-.39.355H621.273a.189.189,0,0,0-.213.213,3.979,3.979,0,0,0,4.082,3.9,5.157,5.157,0,0,0,4.01-1.632.363.363,0,0,1,.533-.073l2.094,1.845a.318.318,0,0,1,.036.5,9.015,9.015,0,0,1-7.027,2.91C621.166,369.387,618.609,367.612,617.652,364.629Zm10.327-7.559a3.656,3.656,0,0,0-6.708,0,4.339,4.339,0,0,0-.213,1.455.189.189,0,0,0,.213.213h6.708a.188.188,0,0,0,.213-.213,4.345,4.345,0,0,0-.212-1.453Z" transform="translate(-313.952 -40.639)" fill="#131d34"/>
    <path id="パス_10" data-name="パス 10" d="M693.585,364.668a17.015,17.015,0,0,1,0-8.447c.994-3.052,3.62-4.72,7.062-4.72a7.45,7.45,0,0,1,5.927,2.662.345.345,0,0,1-.036.5l-2.236,1.952a.321.321,0,0,1-.5-.073,3.873,3.873,0,0,0-3.158-1.491,3.137,3.137,0,0,0-3.192,2.236,10.054,10.054,0,0,0-.355,3.159,10.3,10.3,0,0,0,.355,3.192,3.148,3.148,0,0,0,3.192,2.2,3.873,3.873,0,0,0,3.158-1.491.318.318,0,0,1,.5-.036l2.236,1.952c.177.145.145.32.036.5a7.534,7.534,0,0,1-5.927,2.626C697.205,369.387,694.579,367.719,693.585,364.668Z" transform="translate(-372.477 -40.639)" fill="#131d34"/>
    <path id="パス_11" data-name="パス 11" d="M776.814,346.981a.336.336,0,0,1-.355-.355v-9.865c0-2.2-1.1-3.726-3.229-3.726-2.058,0-3.264,1.523-3.264,3.726v9.865a.335.335,0,0,1-.355.355h-3.264a.335.335,0,0,1-.355-.355V323.2a.335.335,0,0,1,.355-.355h3.264a.335.335,0,0,1,.355.355v8.27H770a5.286,5.286,0,0,1,4.507-1.988c3.655,0,5.926,2.7,5.926,6.353v10.789a.335.335,0,0,1-.355.355Z" transform="translate(-428.52 -18.623)" fill="#131d34"/>
    <path id="パス_12" data-name="パス 12" d="M359.291,308.92h10.486a.693.693,0,0,0,.693-1l-5.243-8.794a.836.836,0,0,0-1.385,0l-5.243,8.794a.693.693,0,0,0,.692,1Z" transform="translate(-115.07)" fill="#2bb8d9"/>
  </g>
</svg>
